<svg xmlns="http://www.w3.org/2000/svg" width="800" height="800" fill="none" viewBox="0 0 32 32"><rect width="20" height="28" x="10" y="2" fill="#1066B5" rx="2"/><rect width="20" height="28" x="10" y="2" fill="url(#a)" rx="2"/><path fill="#32A9E7" d="M10 5h10v10H10z"/><path fill="#167EB4" d="M10 15h10v10H10z"/><path fill="#32A9E7" d="M20 15h10v10H20z"/><path fill="#58D9FD" d="M20 5h10v10H20z"/><mask id="c" width="24" height="16" x="8" y="14" maskUnits="userSpaceOnUse" style="mask-type:alpha"><path fill="url(#b)" d="M8 14h22a2 2 0 0 1 2 2v12a2 2 0 0 1-2 2H10a2 2 0 0 1-2-2z"/></mask><g mask="url(#c)"><path fill="#135298" d="M32 14v4h-2v-4z"/><path fill="url(#d)" d="M32 30V16L7 30z"/><path fill="url(#e)" d="M8 30V16l25 14z"/></g><path fill="#000" fill-opacity=".3" d="M8 12a3 3 0 0 1 3-3h6a3 3 0 0 1 3 3v12a3 3 0 0 1-3 3H8z"/><rect width="18" height="18" y="7" fill="url(#f)" rx="2"/><path fill="#fff" d="M14 16.07v-.167C14 13.023 11.927 11 9.016 11 6.089 11 4 13.036 4 15.93v.167C4 18.977 6.073 21 9 21c2.911 0 5-2.036 5-4.93m-2.358.027c0 1.911-1.075 3.06-2.626 3.06s-2.643-1.176-2.643-3.088v-.166c0-1.911 1.076-3.06 2.627-3.06 1.535 0 2.642 1.176 2.642 3.088z"/><defs><linearGradient id="a" x1="10" x2="30" y1="16" y2="16" gradientUnits="userSpaceOnUse"><stop stop-color="#064484"/><stop offset="1" stop-color="#0F65B5"/></linearGradient><linearGradient id="b" x1="8" x2="32" y1="26.769" y2="26.769" gradientUnits="userSpaceOnUse"><stop stop-color="#1B366F"/><stop offset="1" stop-color="#2657B0"/></linearGradient><linearGradient id="d" x1="32" x2="8" y1="23" y2="23" gradientUnits="userSpaceOnUse"><stop stop-color="#44DCFD"/><stop offset=".453" stop-color="#259ED0"/></linearGradient><linearGradient id="e" x1="8" x2="32" y1="23" y2="23" gradientUnits="userSpaceOnUse"><stop stop-color="#259ED0"/><stop offset="1" stop-color="#44DCFD"/></linearGradient><linearGradient id="f" x1="0" x2="18" y1="16" y2="16" gradientUnits="userSpaceOnUse"><stop stop-color="#064484"/><stop offset="1" stop-color="#0F65B5"/></linearGradient></defs></svg>