<svg xmlns="http://www.w3.org/2000/svg" xml:space="preserve" width="800" height="800" viewBox="-143 145 512 512"><path fill="#4A00A0" d="M113 145c-141.4 0-256 114.6-256 256s114.6 256 256 256 256-114.6 256-256-114.6-256-256-256m78.2 217.3c-6.3 1.7-63.6 46-67.4 56.8-.8 3.8.1 40.2.9 45.6 3.8.9 31 .1 36 1l-.6 11.2c-4.9-.4-39.5-.3-59.3-.3-10 0-42.3 1.1-52.2.8l1.9-10.7c5.4-.4 28 1 32.9-4.2 2.5-2.6 1.7-37.2.9-43-2.1-6.3-52.3-69-65.4-79.2H-15v-15.8H99.1v1.1c.1 0 .3 0 .4.1l-.4 2.6v12H64.7c15.3 22.3 37.3 49.3 46.7 62.3l46-41.5H130l-3.9-15.7h100.1l-.7 1.1h.4l-7.1 10.3h-.2l-2.9 4.2h-18.5c-2.5.5-4.6 1-6 1.3m30.2 115.2-8.4-.6-7.8-.7-.1-16.8 9.8 1.2 8.8.4zm1.7-28-15.3-1.2-.4-71.1c3.5.7 30.6 3.2 33.6 3.3z"/></svg>